<svg width="100" height="16" viewBox="0 0 100 16" fill="none" xmlns="http://www.w3.org/2000/svg">
<g opacity="0.32" clip-path="url(#clip0_1492_23317)">
<path fill-rule="evenodd" clip-rule="evenodd" d="M13.7642 2.86209H3.72144V12.9995H13.7642V9.55483L17.4929 10.3268V12.213C17.4929 13.6695 17.2235 14.66 16.6773 15.1989C16.1311 15.7378 15.0532 16 13.5166 16H3.96904C2.43968 16 1.3837 15.7305 0.808372 15.1989C0.233042 14.6673 -3.8147e-06 13.6695 -3.8147e-06 12.213V3.78697C-3.8147e-06 2.33044 0.269455 1.33999 0.808372 0.815637C1.37642 0.269438 2.4324 -1.68011e-05 3.96904 -1.68011e-05H13.5166C15.0605 -1.68011e-05 16.1092 0.269438 16.6773 0.815637C17.2453 1.36184 17.4929 2.34501 17.4929 3.78697V5.2872L13.7642 5.87709V2.86209ZM21.0469 15.9709V-0.0509785H37.4183V2.68002H24.8047V6.24852H32.1821V8.97222H24.8047V12.9485H37.6076V15.949L21.0469 15.9709ZM53.0906 2.57805H44.6063V6.38689H53.0979C53.5553 6.42122 54.014 6.3385 54.4306 6.14655C54.5611 6.03744 54.6631 5.89823 54.7278 5.7409C54.7925 5.58357 54.818 5.41287 54.802 5.24351V3.72143C54.818 3.55314 54.7926 3.38347 54.7278 3.22731C54.6631 3.07114 54.561 2.93324 54.4306 2.82566C54.0148 2.63059 53.556 2.54535 53.0979 2.57805H53.0906ZM53.0979 9.02321H44.6063V13.0869H53.0979C53.6046 13.1464 54.1168 13.0363 54.5544 12.7738C54.6903 12.624 54.7934 12.4476 54.8574 12.2558C54.9213 12.0639 54.9446 11.8609 54.9258 11.6595V10.4579C54.9457 10.2554 54.9229 10.0509 54.8589 9.85778C54.7949 9.66461 54.6912 9.48698 54.5544 9.33636C54.1179 9.07125 53.6048 8.96093 53.0979 9.02321ZM40.9504 15.9709V-0.0509785H54.6491C55.6282 -0.138231 56.6071 0.119367 57.4165 0.677287C57.7157 0.988268 57.9446 1.35984 58.0878 1.76691C58.2311 2.17398 58.2852 2.60705 58.2467 3.03686V4.98132C58.2572 5.32076 58.1981 5.65878 58.0728 5.97444C57.9475 6.2901 57.7589 6.57671 57.5184 6.81656C56.9584 7.33443 56.2339 7.63865 55.472 7.67591C56.2802 7.74878 57.0375 8.10168 57.6131 8.67363C57.865 8.95469 58.0591 9.2827 58.184 9.63886C58.309 9.99502 58.3625 10.3723 58.3414 10.7492V12.7956C58.3648 13.2581 58.2678 13.7187 58.0597 14.1323C57.8516 14.5459 57.5396 14.8984 57.1543 15.1552C56.0763 15.7485 54.8494 16.0167 53.6222 15.9272L40.9504 15.9709ZM62.2376 15.9709V-0.0509785H78.609V2.68002H65.9663V6.24852H73.3437V8.97222H65.9663V12.9485H78.7765V15.949L62.2376 15.9709ZM94.5653 2.73827H86.2048V6.98405H94.5653C95.0296 7.02751 95.4963 6.93116 95.9053 6.70733C96.0323 6.57649 96.1289 6.41921 96.188 6.24674C96.2472 6.07426 96.2675 5.89083 96.2476 5.70959V4.00545C96.2669 3.82534 96.2463 3.64319 96.1871 3.47198C96.128 3.30077 96.0318 3.14474 95.9053 3.01501C95.4963 2.79119 95.0296 2.69481 94.5653 2.73827ZM82.5489 15.9709V-0.0509785H96.2039C97.191 -0.124991 98.1748 0.131192 99.0005 0.677287C99.3053 0.990661 99.5381 1.3667 99.6827 1.77924C99.8274 2.19178 99.8804 2.6309 99.838 3.066V6.62721C99.8769 7.05655 99.8222 7.48923 99.6776 7.89536C99.533 8.30149 99.302 8.67139 99.0005 8.97951C98.1813 9.5401 97.1924 9.79763 96.2039 9.70778H86.2048V15.9344L82.5489 15.9709Z" fill="#1D242C"/>
</g>
<defs>
<clipPath id="clip0_1492_23317">
<rect width="99.838" height="16" fill="white"/>
</clipPath>
</defs>
</svg>
