<svg width="90" height="24" viewBox="0 0 90 24" fill="none" xmlns="http://www.w3.org/2000/svg">
<g opacity="0.32" clip-path="url(#clip0_1492_23314)">
<path fill-rule="evenodd" clip-rule="evenodd" d="M32.1115 16.9557L31.7863 16.7954C30.8703 18.4809 30.0962 19.0855 29.3359 19.0855C28.9924 19.0855 28.2825 18.8657 28.2825 17.6519C28.272 17.2672 28.309 16.8826 28.3924 16.5069C31.5985 15.5634 33.0184 13.626 33.0184 12.7878C33.0184 12.1008 32.6748 11.4137 31.4199 11.4137C29.6245 11.4137 26.8397 14.0107 26.8397 17.3267C26.8397 18.8153 27.655 19.6168 28.8733 19.6168C30.0916 19.6168 31.0855 18.7008 32.1206 16.9282L32.1115 16.9557ZM31.8458 12.4855C31.8458 13.4473 30.7787 15.6229 28.4748 16.0763C29.0153 14.116 30.1787 11.7206 31.2504 11.7206C31.7588 11.7206 31.8458 12.1786 31.8458 12.4855ZM33.055 19.3557L34.8871 13.6214C35.0318 13.1982 35.1301 12.7605 35.1802 12.316C35.1802 12.1191 35.1252 11.9359 34.8871 11.9359C34.4703 11.9359 33.7649 12.6962 33.2748 13.9145L32.968 13.8229C33.4535 12.7328 34.255 11.3909 35.3771 11.3909C35.5081 11.3784 35.6403 11.3954 35.7639 11.4405C35.8875 11.4856 35.9994 11.5578 36.0916 11.6517C36.1838 11.7457 36.2538 11.859 36.2966 11.9834C36.3394 12.1078 36.3539 12.2402 36.339 12.371C36.3356 12.7749 36.2801 13.1767 36.1741 13.5664C36.7924 12.5359 37.8275 11.3909 39.0779 11.3909C40.2046 11.3909 40.5848 12.0275 40.5848 12.6595C40.5826 12.9883 40.5519 13.3162 40.4932 13.6397V13.5664C41.1115 12.5359 42.1466 11.3909 43.397 11.3909C44.5191 11.3909 44.9038 12.0275 44.9038 12.6595C44.9033 13.2474 44.8042 13.8311 44.6107 14.3863L43.4748 17.9725C43.4011 18.2025 43.358 18.4412 43.3466 18.6824C43.3446 18.7209 43.3507 18.7593 43.3645 18.7952C43.3783 18.8311 43.3995 18.8637 43.4267 18.8909C43.4539 18.9181 43.4865 18.9392 43.5224 18.9531C43.5583 18.9669 43.5967 18.973 43.6351 18.971C44.0703 18.971 44.3634 18.6824 45.2153 17.3542L45.4855 17.5008C44.7069 18.8244 43.9832 19.6443 43.0718 19.6443C42.9185 19.6566 42.7644 19.6344 42.6208 19.5794C42.4772 19.5244 42.3477 19.4379 42.2419 19.3264C42.1361 19.2148 42.0565 19.081 42.0091 18.9347C41.9617 18.7884 41.9477 18.6333 41.968 18.4809C42.0106 17.9667 42.1199 17.4601 42.2932 16.9741L43.4199 13.5298C43.5218 13.1939 43.5772 12.8456 43.5848 12.4947C43.5848 12.2931 43.4199 11.968 42.8932 11.968C41.9771 11.968 40.4428 13.8 39.8977 15.8336L38.9359 19.3878H37.4336L39.0825 13.5298C39.1754 13.1919 39.2307 12.8447 39.2474 12.4947C39.2474 12.2931 39.0825 11.968 38.5558 11.968C37.6397 11.968 36.2886 13.4565 35.5283 15.9389L34.4748 19.3878L33.055 19.3557ZM42.9893 23.9679H47.139L47.2306 23.6382C46.1955 23.6382 46.0718 23.2947 46.0718 22.9878C46.0859 22.6933 46.1335 22.4013 46.2138 22.1176L47.2122 18.9115C47.4642 19.3695 48.2657 19.6214 48.9207 19.6214C50.7161 19.6214 53.2901 17.0977 53.2901 13.6672C53.2901 12.1603 52.4016 11.3771 51.2382 11.3771C50.8461 11.3875 50.4612 11.4839 50.1105 11.6596C49.7599 11.8354 49.4522 12.086 49.2092 12.3939C49.5293 11.2243 49.9603 10.0878 50.4962 9H48.9207C48.229 11.9221 45.9435 13.1221 45.2886 15.568L45.7466 15.7878C46.1817 14.0611 47.3634 12.9206 47.8855 12.1237H47.9084L44.7023 22.374C44.3954 23.3725 43.9924 23.6428 43.0672 23.6428L42.9893 23.9679ZM48.7237 14.1664C49.1817 12.6596 50.1573 11.826 50.7939 11.826C51.2519 11.826 51.8428 12.3344 51.8428 13.4244C51.8428 15.9069 50.2306 19.2275 48.7603 19.2275C47.7802 19.2275 47.3863 18.3756 47.7069 17.3588L48.7237 14.1664ZM53.1985 16.7817C53.1985 14.5282 55.1955 11.3909 57.8061 11.3909C59.5832 11.3909 60.1466 12.9893 60.1466 14.2214C60.1466 16.4702 58.1313 19.6122 55.5206 19.6122C53.739 19.6122 53.1985 18.0137 53.1985 16.7817ZM54.6046 17.6519C54.6046 18.7557 55.1451 19.2641 55.8733 19.2641C57.5222 19.2641 58.7222 14.7847 58.7222 13.3099C58.7222 12.2015 58.2138 11.7847 57.4855 11.7847C55.8367 11.7847 54.6046 16.1771 54.6046 17.6473V17.6519ZM60.1466 19.3878H61.5802L62.6336 15.9389C63.3939 13.4565 64.7359 11.968 65.6611 11.968C66.1878 11.968 66.3527 12.2931 66.3527 12.4947C66.3452 12.8456 66.2897 13.1939 66.1878 13.5298L65.0611 16.9741C64.8879 17.4601 64.7786 17.9667 64.7359 18.4809C64.7164 18.6336 64.7311 18.7887 64.7791 18.935C64.8271 19.0813 64.907 19.215 65.0132 19.3264C65.1194 19.4379 65.2491 19.5242 65.3929 19.5792C65.5366 19.6342 65.6909 19.6564 65.8443 19.6443C66.7603 19.6443 67.4748 18.8244 68.258 17.5008L67.9832 17.3542C67.1313 18.6824 66.8428 18.971 66.4077 18.971C66.3689 18.9736 66.33 18.968 66.2935 18.9545C66.2571 18.941 66.2239 18.9199 66.1962 18.8927C66.1685 18.8654 66.1469 18.8325 66.1328 18.7963C66.1187 18.7601 66.1125 18.7213 66.1145 18.6824C66.1259 18.4412 66.169 18.2025 66.2428 17.9725L67.3832 14.4183C67.5767 13.8632 67.6758 13.2795 67.6764 12.6916C67.6764 12.0595 67.2962 11.4229 66.1695 11.4229C64.9191 11.4229 63.8794 12.568 63.2657 13.5985C63.3717 13.2087 63.4272 12.8069 63.4306 12.403C63.4455 12.2723 63.431 12.1399 63.3882 12.0155C63.3454 11.891 63.2754 11.7777 63.1832 11.6838C63.0911 11.5899 62.9791 11.5177 62.8555 11.4726C62.7319 11.4274 62.5997 11.4105 62.4687 11.4229C61.3466 11.4229 60.5451 12.7649 60.055 13.855L60.3664 13.9466C60.8565 12.7282 61.5619 11.968 61.9787 11.968C62.2168 11.968 62.2672 12.1511 62.2672 12.3481C62.2193 12.7925 62.1225 13.2303 61.9787 13.6535L60.1466 19.3878ZM68.4321 16.8137C68.4321 18.0458 68.9726 19.6443 70.7542 19.6443C73.3649 19.6443 75.3802 16.5023 75.3802 14.2534C75.3802 13.0214 74.8168 11.4229 73.0397 11.4229C70.4245 11.4229 68.4321 14.5603 68.4321 16.8137ZM69.8474 17.6473C69.8474 16.1771 71.0794 11.7847 72.7329 11.7847C73.4565 11.7847 73.9649 12.2015 73.9649 13.3099C73.9649 14.7802 72.7649 19.2641 71.1161 19.2641C70.3878 19.2641 69.8474 18.7557 69.8474 17.6519V17.6473ZM75.8978 18.5222C76.2962 18.5222 76.6214 18.2153 77.2214 16.7267L78.5955 13.3695C79.1955 11.8809 80.2672 11.4275 82.1909 11.4275L80.3588 17.3267C80.2277 17.7284 80.1312 18.1406 80.0703 18.5588C80.0703 18.7557 80.1252 19.0168 80.4504 19.0168C80.9405 19.0168 81.4855 18.2336 82.0672 17.0565L82.3558 17.1664C81.5771 18.655 80.9817 19.5618 79.942 19.5618C79.7892 19.5757 79.6352 19.5554 79.4912 19.5024C79.3472 19.4494 79.2168 19.365 79.1094 19.2554C79.002 19.1459 78.9203 19.0138 78.8702 18.8687C78.8202 18.7237 78.803 18.5693 78.8199 18.4168C78.8551 17.9601 78.9459 17.5095 79.0901 17.0748L80.7252 11.9588C80.2901 11.9954 79.3512 12.1786 78.8199 13.5389L77.4962 16.9466C76.768 18.8153 76.0443 19.6534 74.9909 19.6534C74.4092 19.6534 74.1344 19.3786 74.1344 18.9069C74.1315 18.8184 74.148 18.7305 74.1827 18.6491C74.2175 18.5678 74.2697 18.495 74.3357 18.4361C74.4016 18.3771 74.4797 18.3333 74.5644 18.3079C74.6492 18.2824 74.7385 18.2758 74.826 18.2886C75.3344 18.2886 75.284 18.5267 75.8978 18.5267V18.5222ZM82.768 13.8275L83.0565 13.9374C83.6382 12.7557 84.1833 11.9771 84.6733 11.9771C84.9985 11.9771 85.0535 12.229 85.0535 12.4351C84.9942 12.854 84.896 13.2665 84.7603 13.6672L83.9451 16.2275C83.7303 16.8165 83.6022 17.4337 83.5649 18.0596C83.5649 18.9481 84.481 19.658 85.6123 19.658C86.6068 19.6708 87.5671 19.2951 88.289 18.6108C89.0109 17.9266 89.4374 16.9877 89.4779 15.9939C89.4968 15.756 89.4664 15.5168 89.3885 15.2913C89.3106 15.0657 89.1869 14.8587 89.0252 14.6832C88.8635 14.5078 88.6672 14.3676 88.4488 14.2716C88.2303 14.1755 87.9944 14.1257 87.7558 14.1252C87.3322 14.1486 86.9186 14.2631 86.5432 14.4607C86.1678 14.6582 85.8393 14.9344 85.5802 15.2702V15.2336L86.0382 13.9282C86.1913 13.4959 86.2822 13.0441 86.3084 12.5863C86.3084 11.913 86.0199 11.4412 85.255 11.4412C84.2061 11.4412 83.5512 12.3573 82.7726 13.8366L82.768 13.8275ZM87.2886 14.5603C87.797 14.5603 88.1771 14.9817 88.1771 15.9939C88.1771 16.9099 87.1603 19.3328 85.7268 19.3328C85.4886 19.3257 85.2626 19.226 85.0967 19.055C84.9308 18.884 84.8381 18.6551 84.8382 18.4168C84.8476 17.9508 84.9216 17.4884 85.0581 17.0427L85.3649 16.2825C85.6581 15.5725 86.5283 14.5374 87.2886 14.5374" fill="#1D242C"/>
<path fill-rule="evenodd" clip-rule="evenodd" d="M16.4839 9.83358C16.5026 9.02001 16.4008 8.20815 16.1816 7.42441C15.941 6.71823 15.5714 6.06286 15.0916 5.4916C14.4669 4.71697 13.6868 4.08193 12.8015 3.62748C11.9547 3.18012 11.0111 2.94737 10.0534 2.94962C9.78276 2.94361 9.51202 2.95429 9.24271 2.98166C8.42163 4.04221 7.96824 5.3413 7.95111 6.68243C7.9491 7.58078 8.17106 8.46547 8.59691 9.25648C8.99223 10.023 9.57523 10.6769 10.2916 11.1572C10.94 11.5857 11.6922 11.831 12.4685 11.8673C13.2449 11.9036 14.0167 11.7295 14.7022 11.3634C15.3797 10.967 15.9776 10.4483 16.4656 9.83358H16.4839ZM19.8916 5.4916C19.2983 6.7148 18.811 7.98663 18.4351 9.29312L17.2122 13.4153C15.4488 19.3466 12.7236 22.3008 9.1053 22.3008C7.5858 22.2979 6.10035 21.8505 4.83202 21.0137C3.48426 20.1534 2.38024 18.961 1.62592 17.5512C0.853226 16.1129 0.456212 14.5028 0.471708 12.8702C0.458721 11.2937 0.819751 9.73664 1.52515 8.32672C2.21122 6.94985 3.21046 5.75295 4.44271 4.83206C5.7004 3.8958 7.167 3.27961 8.71598 3.03665C8.00587 4.13065 7.60689 5.39729 7.56179 6.70077C7.53021 8.15627 8.06563 9.56704 9.05492 10.6351C9.5032 11.1579 10.0598 11.577 10.6862 11.8633C11.3126 12.1496 11.9937 12.2963 12.6824 12.2931C13.3714 12.3111 14.0556 12.1733 14.6839 11.8901C15.3404 11.5487 15.9362 11.1015 16.4473 10.5664C16.2912 11.709 15.8862 12.8035 15.261 13.7725C14.668 14.7062 13.867 15.4901 12.9206 16.0626C12.0341 16.6112 11.0134 16.9045 9.97095 16.9099C9.34692 16.9243 8.72662 16.8097 8.14893 16.5733C7.57124 16.3368 7.04858 15.9837 6.61369 15.5359C5.98879 14.8874 5.55637 14.078 5.36469 13.1981C5.17302 12.3182 5.22962 11.4023 5.5282 10.5527L5.15262 10.4153C4.96236 10.9733 4.85888 11.5571 4.84576 12.1466C4.82918 13.099 5.07647 14.0374 5.56027 14.858C6.02631 15.6505 6.69297 16.306 7.49309 16.7588C8.32351 17.2185 9.26005 17.4523 10.2091 17.4366C11.1186 17.4483 12.02 17.264 12.8519 16.8962C13.656 16.5315 14.3729 15.999 14.9542 15.3343C15.5712 14.6244 16.0539 13.808 16.3786 12.9252C16.7346 11.9585 16.919 10.937 16.9236 9.90688C17.217 9.47452 17.4671 9.01428 17.6702 8.53283C17.877 8.06118 18.0469 7.5742 18.1786 7.07632L17.803 7.04428C17.6254 7.79801 17.3285 8.51852 16.9236 9.17862C16.8255 8.22816 16.5733 7.3 16.1771 6.43053C15.5941 5.276 14.7015 4.3064 13.599 3.63019C12.4965 2.95398 11.2276 2.59782 9.93431 2.60153H9.58164C10.1335 1.94149 10.8236 1.4107 11.6032 1.04664C12.3827 0.682588 13.2327 0.494143 14.0931 0.494642C15.4357 0.470239 16.7402 0.941496 17.7572 1.81831C18.8312 2.80277 19.5777 4.09277 19.8961 5.5145L19.8916 5.4916ZM28.4106 21.9664L28.7496 22.1359C28.5205 22.5357 28.1855 22.8646 27.7814 23.086C27.3772 23.3075 26.9198 23.413 26.4595 23.3908C25.9451 23.393 25.4381 23.2689 24.9829 23.0293C24.5277 22.7897 24.1382 22.442 23.8488 22.0168C23.1185 20.9897 22.7496 19.7493 22.8 18.4901C22.8 16.1634 23.4412 13.287 24.7648 9.87481C25.0439 9.13558 25.3604 8.41099 25.7129 7.70382C25.9786 7.20459 26.3496 6.60915 26.7984 5.90838C26.2344 6.34587 25.7226 6.84688 25.2732 7.40152C24.3104 8.64596 23.4597 9.97331 22.7313 11.3679C22.548 11.7069 22.374 12 22.2229 12.2519C22.1954 12.2931 22.0122 12.6595 21.6458 13.3374C21.1877 14.1527 20.7755 14.8397 20.3908 15.4031V14.7252C20.3908 14.6382 20.3908 14.5237 20.3908 14.3863L20.4229 11.5374L20.3908 10.0443C20.3917 8.94589 20.3352 7.84821 20.2213 6.75573C20.2213 6.75573 20.2213 6.64121 20.1709 6.48549C20.1206 6.32976 20.1068 6.21068 20.0839 6.14656C19.8595 6.57252 19.658 6.96639 19.5068 7.33281C19.3313 7.74242 19.1784 8.1614 19.0488 8.58779C18.9114 9.04581 18.719 9.92062 18.4397 11.1664C18.3801 11.4137 18.3481 11.6565 18.3023 11.8946L18.2336 12.2519C18.1878 12.4992 18.1053 12.7786 18.032 13.0992C17.7481 14.2946 17.5145 15.3069 17.2534 16.1176C16.9827 16.9102 16.6409 17.6767 16.232 18.4076C14.661 21.316 12.3664 22.7817 9.316 22.7817C7.66597 22.7838 6.05088 22.3064 4.66713 21.4076C3.21925 20.4833 2.03821 19.1965 1.24118 17.6748C0.40229 16.0993 -0.0291371 14.339 -0.0137873 12.5542C-0.0251467 10.8861 0.382771 9.24187 1.17248 7.77251C1.93297 6.31549 3.05411 5.07766 4.42897 4.1771C5.81118 3.28848 7.40044 2.77398 9.04118 2.68397C9.7 1.8457 10.535 1.16241 11.487 0.682444C12.4557 0.25051 13.5092 0.0422969 14.5694 0.0732755C15.9985 0.0316863 17.4101 0.395302 18.6412 1.12212C19.7621 1.82726 20.6112 2.89113 21.0503 4.14045C21.3961 5.02478 21.6344 5.94741 21.7603 6.88854C21.8953 8.16172 21.9519 9.442 21.9297 10.7221V11.9771C22.519 10.8443 23.09 9.85496 23.6427 9.00916C24.1193 8.26625 24.6473 7.55765 25.2229 6.88854C26.7844 4.99157 28.9321 3.66725 31.3282 3.12367V3.45343C30.5338 3.59577 29.7876 3.93427 29.1572 4.43817C28.4968 5.10889 27.9767 5.90455 27.6274 6.77863C27.1885 7.79535 26.8092 8.83681 26.4916 9.89771C26.1206 11.0977 25.7587 12.4168 25.4244 13.8687C25.1725 14.9725 24.9664 16.0351 24.8152 17.0748C24.682 17.9387 24.6131 18.8114 24.6091 19.6855C24.5642 20.5159 24.7649 21.341 25.1862 22.058C25.3561 22.3248 25.5923 22.5431 25.8716 22.6916C26.1509 22.8401 26.4639 22.9137 26.7801 22.9053C27.1095 22.8963 27.4314 22.8048 27.7163 22.6392C28.0011 22.4735 28.2399 22.2391 28.4106 21.9573" fill="#1D242C"/>
</g>
<defs>
<clipPath id="clip0_1492_23314">
<rect width="89.4779" height="24" fill="white"/>
</clipPath>
</defs>
</svg>
