<svg width="72" height="72" viewBox="0 0 72 72" fill="none" xmlns="http://www.w3.org/2000/svg">
<g opacity="0.32">
<path d="M28.5 19.5V28.5H19.5V19.5H28.5ZM33 15H15V33H33V15ZM28.5 43.5V52.5H19.5V43.5H28.5ZM33 39H15V57H33V39ZM52.5 19.5V28.5H43.5V19.5H52.5ZM57 15H39V33H57V15ZM39 39H43.5V43.5H39V39ZM43.5 43.5H48V48H43.5V43.5ZM48 39H52.5V43.5H48V39ZM39 48H43.5V52.5H39V48ZM43.5 52.5H48V57H43.5V52.5ZM48 48H52.5V52.5H48V48ZM52.5 43.5H57V48H52.5V43.5ZM52.5 52.5H57V57H52.5V52.5ZM63 21C61.35 21 60 19.65 60 18V12H54C52.35 12 51 10.65 51 9C51 7.35 52.35 6 54 6H63C64.65 6 66 7.35 66 9V18C66 19.65 64.65 21 63 21ZM66 63V54C66 52.35 64.65 51 63 51C61.35 51 60 52.35 60 54V60H54C52.35 60 51 61.35 51 63C51 64.65 52.35 66 54 66H63C64.65 66 66 64.65 66 63ZM9 66H18C19.65 66 21 64.65 21 63C21 61.35 19.65 60 18 60H12V54C12 52.35 10.65 51 9 51C7.35 51 6 52.35 6 54V63C6 64.65 7.35 66 9 66ZM6 9V18C6 19.65 7.35 21 9 21C10.65 21 12 19.65 12 18V12H18C19.65 12 21 10.65 21 9C21 7.35 19.65 6 18 6H9C7.35 6 6 7.35 6 9Z" fill="#1D242C"/>
</g>
</svg>
