<svg width="108" height="28" viewBox="0 0 108 28" fill="none" xmlns="http://www.w3.org/2000/svg">
<g opacity="0.32">
<path fill-rule="evenodd" clip-rule="evenodd" d="M89.0108 17.2525V0H103.74C105.092 0 106.101 0.256784 106.755 0.77585C107.355 1.30434 107.655 2.16107 107.655 3.34841V7.19075C107.655 8.34981 107.355 9.19634 106.755 9.73111C106.113 10.273 105.109 10.5399 103.74 10.5399H92.9528V17.2525H89.0108ZM101.973 2.98168H92.9528V7.55747H101.973C102.675 7.55747 103.157 7.45853 103.411 7.25828C103.655 7.05804 103.78 6.7031 103.78 6.18953V4.35042C103.78 3.83685 103.655 3.48269 103.411 3.28009C103.157 3.08063 102.675 2.98168 101.973 2.98168ZM67.1134 17.2525V0H84.7664V2.94006H71.1301V6.79105H79.0904V9.73111H71.1301V14.0116H84.9415V17.2525H67.1134ZM44.1575 17.2525V0H58.9317C60.2808 0 61.2757 0.266993 61.911 0.808047C62.5078 1.3436 62.8078 2.18856 62.8078 3.34841V5.44823C62.8078 6.25549 62.5525 6.91355 62.0382 7.42476C61.5105 7.95325 60.7731 8.26108 59.8331 8.3561C60.832 8.49195 61.5992 8.85161 62.1395 9.43114C62.6798 9.99496 62.9468 10.7386 62.9468 11.6707V13.8711C62.9468 14.9893 62.5227 15.8366 61.6723 16.4216C60.8516 16.9737 59.5826 17.2525 57.8621 17.2525H44.1575ZM57.2535 9.7586H48.1004V14.1381H57.2535C58.0286 14.1381 58.5414 14.0266 58.7982 13.8043C59.0636 13.5703 59.1979 13.1683 59.1979 12.6052V11.3032C59.1979 10.7284 59.0636 10.3287 58.7982 10.0939C58.5359 9.87168 58.0231 9.7586 57.2535 9.7586ZM57.2535 2.81207H48.1004V6.91826H57.2535C57.932 6.91826 58.4118 6.82952 58.6929 6.65755C58.9654 6.45024 59.0958 6.12671 59.0958 5.68617V4.04494C59.0958 3.60362 58.9654 3.28009 58.6929 3.07278C58.4118 2.90316 57.932 2.81207 57.2535 2.81207ZM22.7282 17.2525V0H40.3803V2.94006H26.7449V6.79105H34.7052V9.73111H26.7449V14.0116H40.5531V17.2525H22.7282ZM14.8472 3.08063H4.01746V14.0116H14.8472V10.3004L18.8631 11.1297V13.1683C18.8631 14.7341 18.5733 15.8028 17.9867 16.3887C17.3687 16.9619 16.234 17.2525 14.5778 17.2525H4.28288C2.62988 17.2525 1.49202 16.9619 0.874009 16.3887C0.29055 15.8028 0 14.7341 0 13.1683V4.07871C0 2.52544 0.29055 1.45511 0.874009 0.874795C1.48888 0.290551 2.6236 0 4.28288 0H14.5778C16.2395 0 17.3742 0.290551 17.9867 0.874795C18.5733 1.45511 18.8631 2.52544 18.8631 4.08264V5.71993L14.8472 6.3615V3.08063Z" fill="#1D242C"/>
<path d="M24.6674 24.736C24.6674 24.2248 24.6077 23.8219 24.4883 23.5275C24.3697 23.2338 24.1616 23.0861 23.8656 23.0861C23.5688 23.0861 23.3614 23.2346 23.2437 23.529C23.1259 23.8243 23.0662 24.2271 23.0662 24.736C23.0662 25.2378 23.1243 25.6375 23.2405 25.9367C23.3559 26.2359 23.568 26.3859 23.875 26.3859C24.1632 26.3859 24.3674 26.2406 24.4875 25.9516C24.6069 25.6618 24.6674 25.2566 24.6674 24.736ZM25.4157 24.7344C25.4157 25.4718 25.2838 26.0286 25.0207 26.4047C24.7577 26.7809 24.3752 26.9701 23.875 26.9701C23.3717 26.9701 22.9869 26.7816 22.7199 26.4063C22.4521 26.0301 22.3186 25.4734 22.3186 24.7344C22.3186 24.0018 22.4513 23.4466 22.716 23.0697C22.9814 22.6912 23.3669 22.5027 23.8719 22.5027C24.3705 22.5027 24.7522 22.6912 25.0176 23.0665C25.283 23.4427 25.4157 23.9986 25.4157 24.7344Z" fill="#1D242C"/>
<path d="M28.2714 25.4412L28.9279 25.5331C28.7936 26.4911 28.3232 26.9693 27.5183 26.9693C26.9946 26.9693 26.6043 26.7683 26.3483 26.367C26.0915 25.9642 25.9635 25.4263 25.9635 24.7533C25.9635 24.0269 26.0994 23.4701 26.3703 23.083C26.6412 22.6959 27.0323 22.5027 27.5435 22.5027C28.3342 22.5027 28.7976 22.9927 28.9342 23.9735L28.2714 24.0717C28.2 23.4191 27.9581 23.0932 27.5466 23.0932C26.9961 23.0932 26.7213 23.6594 26.7213 24.7949C26.7213 25.8503 26.9961 26.3788 27.5466 26.3788C27.7673 26.3788 27.9314 26.2987 28.0398 26.1377C28.1481 25.9767 28.2251 25.7451 28.2714 25.4412Z" fill="#1D242C"/>
<path d="M29.5167 22.5817H30.2298V24.3682H31.4988V22.5817H32.2126V26.8905H31.4988V24.9713H30.2298V26.8905H29.5167V22.5817Z" fill="#1D242C"/>
<path d="M35.2474 24.736C35.2474 24.2248 35.1878 23.8219 35.0684 23.5275C34.9498 23.2338 34.7417 23.0861 34.4457 23.0861C34.1488 23.0861 33.9415 23.2346 33.8237 23.529C33.7059 23.8243 33.6463 24.2271 33.6463 24.736C33.6463 25.2378 33.7044 25.6375 33.8206 25.9367C33.936 26.2359 34.1481 26.3859 34.4551 26.3859C34.7433 26.3859 34.9475 26.2406 35.0676 25.9516C35.187 25.6618 35.2474 25.2566 35.2474 24.736ZM35.9958 24.7344C35.9958 25.4718 35.8639 26.0286 35.6008 26.4047C35.3377 26.7809 34.9553 26.9701 34.4551 26.9701C33.9517 26.9701 33.5669 26.7816 33.3 26.4063C33.0322 26.0301 32.8987 25.4734 32.8987 24.7344C32.8987 24.0018 33.0314 23.4466 33.296 23.0697C33.5615 22.6912 33.947 22.5027 34.452 22.5027C34.9506 22.5027 35.3322 22.6912 35.5977 23.0665C35.8631 23.4427 35.9958 23.9986 35.9958 24.7344Z" fill="#1D242C"/>
<path d="M37.3725 26.3196H37.9473C38.4734 26.3196 38.7365 26.0871 38.7365 25.6215C38.7365 25.4408 38.6808 25.2791 38.5693 25.1354C38.4577 24.9932 38.23 24.921 37.8868 24.921H37.3725V26.3196ZM37.3725 24.3689H37.824C38.1413 24.3689 38.3509 24.3101 38.4522 24.193C38.5528 24.0768 38.6038 23.9253 38.6038 23.7407C38.6038 23.5232 38.5457 23.3685 38.4303 23.2743C38.314 23.1808 38.1358 23.1337 37.8939 23.1337H37.3725V24.3689ZM36.6752 22.5817H37.9787C38.307 22.5817 38.5567 22.6076 38.7271 22.661C38.8975 22.7128 39.0412 22.8306 39.159 23.0128C39.2776 23.195 39.3357 23.4164 39.3357 23.6771C39.3357 24.1546 39.1229 24.4702 38.6957 24.621C39.2108 24.7828 39.4684 25.144 39.4684 25.7039C39.4684 26.0219 39.3671 26.2991 39.1645 26.5355C38.9611 26.7727 38.5724 26.8912 37.9976 26.8912H36.6752V22.5817Z" fill="#1D242C"/>
<path d="M41.8255 25.2485L41.3316 23.2751L40.8424 25.2485H41.8255ZM41.0026 22.5817H41.802L42.9587 26.8905H42.2362L41.9661 25.8107H40.7026L40.4348 26.8905H39.7548L41.0026 22.5817Z" fill="#1D242C"/>
<path d="M43.387 22.5817H44.1V24.3682H45.369V22.5817H46.0828V26.8905H45.369V24.9713H44.1V26.8905H43.387V22.5817Z" fill="#1D242C"/>
<path d="M49.1176 24.736C49.1176 24.2248 49.0579 23.8219 48.9385 23.5275C48.8199 23.2338 48.6118 23.0861 48.3158 23.0861C48.019 23.0861 47.8116 23.2346 47.6939 23.529C47.5761 23.8243 47.5164 24.2271 47.5164 24.736C47.5164 25.2378 47.5745 25.6375 47.6907 25.9367C47.8061 26.2359 48.0182 26.3859 48.3252 26.3859C48.6134 26.3859 48.8176 26.2406 48.9377 25.9516C49.0571 25.6618 49.1176 25.2566 49.1176 24.736ZM49.8659 24.7344C49.8659 25.4718 49.734 26.0286 49.4709 26.4047C49.2079 26.7809 48.8254 26.9701 48.3252 26.9701C47.8219 26.9701 47.4371 26.7816 47.1701 26.4063C46.9023 26.0301 46.7688 25.4734 46.7688 24.7344C46.7688 24.0018 46.9015 23.4466 47.1661 23.0697C47.4316 22.6912 47.8171 22.5027 48.3221 22.5027C48.8207 22.5027 49.2024 22.6912 49.4678 23.0665C49.7332 23.4427 49.8659 23.9986 49.8659 24.7344Z" fill="#1D242C"/>
<path d="M52.4535 26.3196H53.0284C53.5545 26.3196 53.8176 26.0871 53.8176 25.6215C53.8176 25.4408 53.7618 25.2791 53.6503 25.1354C53.5388 24.9932 53.3111 24.921 52.9679 24.921H52.4535V26.3196ZM52.4535 24.3689H52.9051C53.2223 24.3689 53.432 24.3101 53.5333 24.193C53.6338 24.0768 53.6849 23.9253 53.6849 23.7407C53.6849 23.5232 53.6267 23.3685 53.5113 23.2743C53.3951 23.1808 53.2168 23.1337 52.975 23.1337H52.4535V24.3689ZM51.7562 22.5817H53.0598C53.388 22.5817 53.6377 22.6076 53.8081 22.661C53.9785 22.7128 54.1223 22.8306 54.24 23.0128C54.3586 23.195 54.4167 23.4164 54.4167 23.6771C54.4167 24.1546 54.2039 24.4702 53.7767 24.621C54.2919 24.7828 54.5494 25.144 54.5494 25.7039C54.5494 26.0219 54.4481 26.2991 54.2455 26.5355C54.0422 26.7727 53.6534 26.8912 53.0786 26.8912H51.7562V22.5817Z" fill="#1D242C"/>
<path d="M57.7533 22.5292H58.274V26.355H58.9752V26.8859H56.8283V26.355H57.5767V23.4032C57.3827 23.6372 57.1275 23.8406 56.8094 24.0133V23.3498C57.1801 23.148 57.4942 22.8739 57.7533 22.5292Z" fill="#1D242C"/>
<path d="M61.4431 23.9138C61.4431 23.6618 61.385 23.4552 61.268 23.295C61.1517 23.1356 60.9931 23.0547 60.7913 23.0547C60.5981 23.0547 60.4403 23.1301 60.317 23.2809C60.1945 23.4317 60.1332 23.646 60.1332 23.9264C60.1332 24.1855 60.1906 24.3905 60.306 24.5436C60.4214 24.696 60.5824 24.7729 60.7882 24.7729C60.9978 24.7729 61.1596 24.6889 61.2735 24.5232C61.3865 24.3567 61.4431 24.1541 61.4431 23.9138ZM59.5144 26.0254L60.1332 25.8425C60.2251 26.2257 60.4285 26.4173 60.741 26.4173C61.0072 26.4173 61.1989 26.2775 61.3159 25.9972C61.4321 25.7176 61.4957 25.3163 61.5067 24.7949C61.3143 25.1734 61.0214 25.3634 60.6256 25.3634C60.295 25.3634 60.0154 25.2339 59.7861 24.9747C59.5568 24.7156 59.4414 24.374 59.4414 23.9484C59.4414 23.5235 59.5639 23.1765 59.8073 22.9071C60.0524 22.6378 60.3782 22.5027 60.7866 22.5027C61.7148 22.5027 62.1789 23.1812 62.1789 24.5389C62.1789 26.1589 61.6881 26.9701 60.7073 26.9701C60.4002 26.9701 60.1521 26.8986 59.9628 26.7565C59.7736 26.6144 59.6236 26.3709 59.5144 26.0254Z" fill="#1D242C"/>
<path d="M64.8575 24.7329C64.8575 24.1007 64.8017 23.6586 64.6886 23.4065C64.5764 23.1529 64.4091 23.0265 64.1884 23.0265C63.9693 23.0265 63.8036 23.1513 63.6898 23.401C63.5759 23.6508 63.5194 24.0952 63.5194 24.7329C63.5194 25.42 63.5814 25.8754 63.7055 26.1008C63.8296 26.3262 63.9905 26.4393 64.1884 26.4393C64.4138 26.4393 64.5811 26.3113 64.6918 26.0561C64.8025 25.7993 64.8575 25.3587 64.8575 24.7329ZM65.5933 24.6842C65.5933 25.4883 65.4739 26.0702 65.2344 26.4298C64.9957 26.7895 64.647 26.9701 64.1884 26.9701C63.2516 26.9701 62.7836 26.2429 62.7836 24.7878C62.7836 23.9821 62.9037 23.4003 63.1432 23.0414C63.3835 22.6825 63.7314 22.5027 64.1884 22.5027C65.1245 22.5027 65.5933 23.2298 65.5933 24.6842Z" fill="#1D242C"/>
<path d="M66.6851 23.69L66.0851 23.551C66.283 22.8521 66.7259 22.5027 67.4146 22.5027C67.808 22.5027 68.1166 22.6063 68.3412 22.8144C68.565 23.021 68.6773 23.3045 68.6773 23.6625C68.6773 24.1172 68.4527 24.4384 68.0051 24.6261C68.5328 24.769 68.7967 25.1208 68.7967 25.683C68.7967 26.0828 68.6663 26.3969 68.4056 26.6262C68.1449 26.8547 67.8088 26.9701 67.3989 26.9701C67.0298 26.9701 66.7173 26.879 66.4597 26.6968C66.2014 26.5147 66.038 26.221 65.9681 25.8142L66.5814 25.6697C66.6859 26.1597 66.9442 26.4047 67.3549 26.4047C67.5418 26.4047 67.7036 26.3435 67.841 26.2202C67.9777 26.0969 68.046 25.9014 68.046 25.6351C68.046 25.4239 67.9839 25.2519 67.8599 25.1176C67.735 24.9842 67.5073 24.9174 67.1743 24.9174H66.9026V24.3936H67.1743C67.3596 24.3936 67.5018 24.3779 67.5992 24.3465C67.6973 24.3151 67.7813 24.2452 67.8536 24.1392C67.925 24.0332 67.9612 23.895 67.9612 23.7261C67.9612 23.5188 67.9078 23.3547 67.8025 23.2322C67.6973 23.1105 67.5513 23.0492 67.3636 23.0492C67.0165 23.0492 66.7903 23.2628 66.6851 23.69Z" fill="#1D242C"/>
<path d="M70.7582 26.8905V22.5817H72.8478V23.1808H71.4712V26.8905H70.7582Z" fill="#1D242C"/>
<path d="M75.3967 24.736C75.3967 24.2248 75.337 23.8219 75.2177 23.5275C75.0991 23.2338 74.891 23.0861 74.595 23.0861C74.2981 23.0861 74.0908 23.2346 73.973 23.529C73.8552 23.8243 73.7956 24.2271 73.7956 24.736C73.7956 25.2378 73.8537 25.6375 73.9699 25.9367C74.0853 26.2359 74.2973 26.3859 74.6044 26.3859C74.8926 26.3859 75.0967 26.2406 75.2169 25.9516C75.3363 25.6618 75.3967 25.2566 75.3967 24.736ZM76.1451 24.7344C76.1451 25.4718 76.0132 26.0286 75.7501 26.4047C75.487 26.7809 75.1046 26.9701 74.6044 26.9701C74.101 26.9701 73.7162 26.7816 73.4492 26.4063C73.1815 26.0301 73.048 25.4734 73.048 24.7344C73.048 24.0018 73.1807 23.4466 73.4453 23.0697C73.7107 22.6912 74.0963 22.5027 74.6012 22.5027C75.0999 22.5027 75.4815 22.6912 75.747 23.0665C76.0124 23.4427 76.1451 23.9986 76.1451 24.7344Z" fill="#1D242C"/>
<path d="M77.3045 26.2913H78.7564L78.1502 23.3112H77.9759L77.3045 26.2913ZM76.6629 26.2913L77.599 22.5817H78.6465L79.4977 26.2913H79.7412V27.81H79.2425L79.1601 26.8912H76.9943L76.9158 27.81H76.4171V26.2913H76.6629Z" fill="#1D242C"/>
<path d="M81.0002 25.6458L79.7461 22.5817H80.4764L81.3017 24.7726L82.014 22.5817H82.6563L81.5577 25.839C81.4211 26.2457 81.2789 26.5222 81.1321 26.6698C80.9845 26.8166 80.7654 26.8905 80.4756 26.8905H80.1819V26.2748H80.4756C80.5345 26.2748 80.6075 26.2544 80.6947 26.2151C80.7819 26.1751 80.8659 26.0377 80.9468 25.8044L81.0002 25.6458Z" fill="#1D242C"/>
</g>
</svg>
