<svg width="98" height="28" viewBox="0 0 98 28" fill="none" xmlns="http://www.w3.org/2000/svg">
<g opacity="0.32">
<path fill-rule="evenodd" clip-rule="evenodd" d="M35.07 18.4332L34.715 18.2582C33.715 20.0982 32.87 20.7581 32.04 20.7581C31.665 20.7581 30.89 20.5181 30.89 19.1932C30.8786 18.7732 30.919 18.3533 31.01 17.9432C34.51 16.9132 36.06 14.7982 36.06 13.8832C36.06 13.1333 35.685 12.3833 34.315 12.3833C32.355 12.3833 29.3151 15.2182 29.3151 18.8382C29.3151 20.4632 30.2051 21.3381 31.535 21.3381C32.865 21.3381 33.95 20.3382 35.08 18.4032L35.07 18.4332ZM34.78 13.5532C34.78 14.6032 33.615 16.9782 31.1 17.4732C31.69 15.3332 32.96 12.7183 34.13 12.7183C34.685 12.7183 34.78 13.2182 34.78 13.5532ZM36.1 21.0531L38.0999 14.7932C38.258 14.3313 38.3653 13.8534 38.4199 13.3682C38.4199 13.1533 38.3599 12.9532 38.0999 12.9532C37.6449 12.9532 36.875 13.7832 36.34 15.1132L36.005 15.0132C36.535 13.8232 37.41 12.3583 38.6349 12.3583C38.7779 12.3447 38.9222 12.3632 39.0571 12.4125C39.192 12.4617 39.3143 12.5405 39.4149 12.643C39.5155 12.7456 39.592 12.8693 39.6387 13.0051C39.6854 13.141 39.7012 13.2855 39.6849 13.4282C39.6812 13.8692 39.6207 14.3078 39.5049 14.7332C40.1799 13.6082 41.3099 12.3583 42.6749 12.3583C43.9049 12.3583 44.3199 13.0533 44.3199 13.7432C44.3175 14.1021 44.284 14.4601 44.2198 14.8132V14.7332C44.8948 13.6082 46.0248 12.3583 47.3898 12.3583C48.6148 12.3583 49.0348 13.0533 49.0348 13.7432C49.0342 14.385 48.926 15.0222 48.7148 15.6282L47.4748 19.5432C47.3943 19.7942 47.3472 20.0548 47.3348 20.3181C47.3327 20.3601 47.3393 20.402 47.3544 20.4412C47.3695 20.4804 47.3926 20.516 47.4223 20.5457C47.452 20.5754 47.4876 20.5985 47.5268 20.6136C47.566 20.6286 47.6079 20.6353 47.6498 20.6331C48.1248 20.6331 48.4448 20.3182 49.3748 18.8682L49.6698 19.0282C48.8198 20.4732 48.0298 21.3681 47.0348 21.3681C46.8675 21.3815 46.6993 21.3573 46.5425 21.2973C46.3857 21.2372 46.2444 21.1428 46.1289 21.0211C46.0133 20.8993 45.9265 20.7532 45.8747 20.5935C45.823 20.4338 45.8077 20.2645 45.8298 20.0981C45.8764 19.5368 45.9957 18.9838 46.1848 18.4532L47.4148 14.6932C47.526 14.3265 47.5866 13.9463 47.5948 13.5632C47.5948 13.3432 47.4148 12.9883 46.8398 12.9883C45.8398 12.9883 44.1649 14.9882 43.5699 17.2082L42.5199 21.0881H40.8799L42.6799 14.6932C42.7813 14.3244 42.8417 13.9454 42.8599 13.5632C42.8599 13.3432 42.6799 12.9883 42.1049 12.9883C41.1049 12.9883 39.6299 14.6132 38.7999 17.3232L37.65 21.0881L36.1 21.0531ZM46.9448 26.0881H51.4748L51.5748 25.7281C50.4448 25.7281 50.3098 25.3531 50.3098 25.0181C50.3252 24.6966 50.3772 24.3778 50.4648 24.0681L51.5548 20.5681C51.8297 21.0431 52.7047 21.3431 53.4197 21.3431C55.3797 21.3431 58.1896 18.5882 58.1896 14.8432C58.1896 13.1982 57.2197 12.3433 55.9497 12.3433C55.5217 12.3546 55.1014 12.4599 54.7186 12.6517C54.3359 12.8435 54 13.1172 53.7347 13.4532C54.0842 12.1764 54.5546 10.9358 55.1397 9.74829H53.4197C52.6647 12.9382 50.1698 14.2482 49.4548 16.9182L49.9548 17.1582C50.4298 15.2732 51.7197 14.0282 52.2897 13.1582H52.3147L48.8148 24.3481C48.4798 25.4381 48.0398 25.7331 47.0298 25.7331L46.9448 26.0881ZM53.2047 15.3882C53.7047 13.7432 54.7697 12.8333 55.4647 12.8333C55.9647 12.8333 56.6097 13.3882 56.6097 14.5782C56.6097 17.2882 54.8497 20.9131 53.2447 20.9131C52.1747 20.9131 51.7447 19.9831 52.0947 18.8732L53.2047 15.3882ZM58.0897 18.2432C58.0897 15.7832 60.2696 12.3583 63.1196 12.3583C65.0596 12.3583 65.6745 14.1032 65.6745 15.4482C65.6745 17.9032 63.4746 21.3331 60.6246 21.3331C58.6796 21.3331 58.0897 19.5882 58.0897 18.2432ZM59.6246 19.1932C59.6246 20.3981 60.2146 20.9531 61.0096 20.9531C62.8096 20.9531 64.1196 16.0632 64.1196 14.4532C64.1196 13.2432 63.5646 12.7883 62.7696 12.7883C60.9696 12.7883 59.6246 17.5832 59.6246 19.1882V19.1932ZM65.6745 21.0881H67.2395L68.3895 17.3232C69.2195 14.6132 70.6845 12.9883 71.6945 12.9883C72.2695 12.9883 72.4495 13.3432 72.4495 13.5632C72.4412 13.9463 72.3807 14.3265 72.2695 14.6932L71.0395 18.4532C70.8504 18.9838 70.731 19.5368 70.6845 20.0981C70.6631 20.2648 70.6792 20.4342 70.7316 20.5938C70.784 20.7535 70.8713 20.8995 70.9872 21.0211C71.1031 21.1428 71.2447 21.2371 71.4016 21.2971C71.5586 21.3571 71.7269 21.3814 71.8945 21.3681C72.8944 21.3681 73.6744 20.4732 74.5294 19.0282L74.2294 18.8682C73.2994 20.3182 72.9844 20.6331 72.5095 20.6331C72.4671 20.636 72.4246 20.6299 72.3848 20.6152C72.345 20.6004 72.3088 20.5774 72.2786 20.5476C72.2483 20.5179 72.2248 20.482 72.2094 20.4425C72.194 20.4029 72.1872 20.3605 72.1894 20.3181C72.2019 20.0548 72.2489 19.7942 72.3294 19.5432L73.5744 15.6632C73.7856 15.0572 73.8938 14.42 73.8944 13.7782C73.8944 13.0883 73.4794 12.3933 72.2494 12.3933C70.8845 12.3933 69.7495 13.6432 69.0795 14.7682C69.1953 14.3428 69.2558 13.9042 69.2595 13.4632C69.2758 13.3205 69.26 13.176 69.2132 13.0401C69.1665 12.9043 69.0901 12.7806 68.9895 12.678C68.8889 12.5755 68.7666 12.4967 68.6317 12.4475C68.4967 12.3982 68.3525 12.3797 68.2095 12.3933C66.9845 12.3933 66.1095 13.8582 65.5746 15.0482L65.9145 15.1482C66.4495 13.8182 67.2195 12.9883 67.6745 12.9883C67.9345 12.9883 67.9895 13.1883 67.9895 13.4033C67.9372 13.8884 67.8316 14.3662 67.6745 14.8282L65.6745 21.0881ZM74.7194 18.2782C74.7194 19.6232 75.3094 21.3681 77.2544 21.3681C80.1043 21.3681 82.3043 17.9382 82.3043 15.4832C82.3043 14.1382 81.6893 12.3933 79.7493 12.3933C76.8944 12.3933 74.7194 15.8182 74.7194 18.2782ZM76.2644 19.1882C76.2644 17.5832 77.6094 12.7883 79.4144 12.7883C80.2043 12.7883 80.7593 13.2432 80.7593 14.4532C80.7593 16.0582 79.4494 20.9531 77.6494 20.9531C76.8544 20.9531 76.2644 20.3981 76.2644 19.1932V19.1882ZM82.8693 20.1431C83.3043 20.1431 83.6593 19.8082 84.3143 18.1832L85.8143 14.5182C86.4692 12.8933 87.6392 12.3983 89.7392 12.3983L87.7392 18.8382C87.5961 19.2767 87.4908 19.7267 87.4242 20.1832C87.4242 20.3982 87.4842 20.6831 87.8392 20.6831C88.3742 20.6831 88.9692 19.8282 89.6042 18.5432L89.9192 18.6632C89.0692 20.2881 88.4192 21.2781 87.2842 21.2781C87.1174 21.2932 86.9493 21.2711 86.7921 21.2132C86.6349 21.1554 86.4925 21.0633 86.3753 20.9437C86.2581 20.824 86.1689 20.6798 86.1142 20.5215C86.0596 20.3631 86.0408 20.1946 86.0593 20.0282C86.0977 19.5297 86.1968 19.0377 86.3543 18.5632L88.1392 12.9783C87.6642 13.0183 86.6393 13.2182 86.0593 14.7032L84.6143 18.4232C83.8193 20.4631 83.0293 21.3781 81.8793 21.3781C81.2443 21.3781 80.9443 21.0781 80.9443 20.5631C80.9411 20.4666 80.9591 20.3706 80.9971 20.2818C81.0351 20.193 81.0921 20.1136 81.1641 20.0492C81.2361 19.9848 81.3213 19.937 81.4138 19.9092C81.5063 19.8814 81.6038 19.8742 81.6993 19.8882C82.2543 19.8882 82.1993 20.1482 82.8693 20.1482V20.1431ZM90.3692 15.0182L90.6842 15.1382C91.3192 13.8482 91.9142 12.9982 92.4492 12.9982C92.8042 12.9982 92.8642 13.2732 92.8642 13.4982C92.7994 13.9555 92.6923 14.4058 92.5442 14.8432L91.6542 17.6382C91.4197 18.2812 91.2799 18.9549 91.2392 19.6382C91.2392 20.6082 92.2392 21.3831 93.4742 21.3831C94.5599 21.3971 95.6082 20.9869 96.3963 20.24C97.1843 19.493 97.6499 18.4681 97.6941 17.3832C97.7148 17.1235 97.6815 16.8624 97.5965 16.6161C97.5114 16.3699 97.3764 16.144 97.1999 15.9524C97.0233 15.7608 96.8091 15.6078 96.5706 15.503C96.3322 15.3982 96.0746 15.3438 95.8141 15.3432C95.3517 15.3688 94.9002 15.4937 94.4904 15.7094C94.0806 15.9251 93.7221 16.2265 93.4391 16.5932V16.5532L93.9391 15.1282C94.1062 14.6563 94.2056 14.1631 94.2341 13.6632C94.2341 12.9283 93.9191 12.4133 93.0842 12.4133C91.9392 12.4133 91.2242 13.4133 90.3742 15.0282L90.3692 15.0182ZM95.3041 15.8182C95.8591 15.8182 96.2741 16.2782 96.2741 17.3832C96.2741 18.3832 95.1641 21.0281 93.5991 21.0281C93.3392 21.0203 93.0925 20.9115 92.9114 20.7248C92.7303 20.5382 92.629 20.2883 92.6292 20.0282C92.6394 19.5195 92.7202 19.0147 92.8692 18.5282L93.2041 17.6982C93.5241 16.9232 94.4741 15.7932 95.3041 15.7932" fill="#1D242C"/>
<path fill-rule="evenodd" clip-rule="evenodd" d="M18.0102 10.6583C18.0306 9.77021 17.9194 8.88396 17.6802 8.0284C17.4175 7.25749 17.014 6.54204 16.4902 5.91843C15.8083 5.0728 14.9567 4.37956 13.9902 3.88345C13.0658 3.39509 12.0357 3.14099 10.9903 3.14346C10.6948 3.13689 10.3993 3.14858 10.1053 3.17846C9.20897 4.33621 8.71402 5.75434 8.69532 7.21839C8.69312 8.19908 8.93543 9.16486 9.40031 10.0284C9.83186 10.8651 10.4683 11.579 11.2503 12.1033C11.9582 12.571 12.7793 12.8388 13.6268 12.8784C14.4743 12.918 15.3168 12.728 16.0652 12.3283C16.8047 11.8956 17.4574 11.3294 17.9902 10.6583H18.0102ZM21.7301 5.91843C21.0824 7.25373 20.5505 8.64213 20.1401 10.0684L18.8052 14.5683C16.8802 21.0682 13.9052 24.2682 9.95529 24.2682C8.29653 24.265 6.67494 23.7767 5.29037 22.8632C3.81908 21.9239 2.61388 20.6223 1.79042 19.0832C0.946908 17.5132 0.513508 15.7555 0.530423 13.9733C0.516247 12.2523 0.910365 10.5525 1.68042 9.01338C2.42936 7.51032 3.52018 6.20372 4.86537 5.19843C6.23833 4.17636 7.83935 3.50368 9.5303 3.23846C8.7551 4.43273 8.31955 5.81545 8.27032 7.2384C8.23585 8.8273 8.82033 10.3674 9.9003 11.5333C10.3897 12.1041 10.9973 12.5616 11.6811 12.8741C12.3649 13.1867 13.1084 13.3468 13.8602 13.3433C14.6124 13.3629 15.3593 13.2125 16.0452 12.9033C16.7619 12.5306 17.4122 12.0424 17.9702 11.4583C17.7997 12.7057 17.3577 13.9004 16.6752 14.9583C16.0278 15.9776 15.1534 16.8332 14.1202 17.4583C13.1526 18.0572 12.0383 18.3773 10.9003 18.3832C10.2191 18.3989 9.54191 18.2738 8.91127 18.0157C8.28063 17.7576 7.71007 17.3721 7.23533 16.8833C6.55315 16.1754 6.0811 15.2918 5.87185 14.3312C5.66261 13.3707 5.72441 12.3708 6.05035 11.4433L5.64035 11.2933C5.43265 11.9025 5.31968 12.5399 5.30536 13.1833C5.28726 14.223 5.55722 15.2475 6.08535 16.1433C6.59411 17.0083 7.32187 17.724 8.19532 18.2182C9.10185 18.7201 10.1242 18.9753 11.1603 18.9582C12.1531 18.971 13.1371 18.7698 14.0452 18.3682C14.9231 17.9702 15.7056 17.3888 16.3402 16.6633C17.0139 15.8883 17.5408 14.9971 17.8952 14.0333C18.2838 12.978 18.4852 11.8629 18.4902 10.7383C18.8105 10.2664 19.0835 9.76394 19.3052 9.23837C19.5309 8.72349 19.7165 8.19191 19.8601 7.6484L19.4502 7.61339C19.2562 8.4362 18.9322 9.22276 18.4902 9.94336C18.383 8.90579 18.1078 7.89256 17.6752 6.9434C17.0388 5.68307 16.0644 4.62462 14.8609 3.88643C13.6573 3.14824 12.2722 2.75942 10.8603 2.76347H10.4753C11.0778 2.04294 11.8311 1.4635 12.6821 1.06608C13.5331 0.668657 14.461 0.462957 15.4002 0.463501C16.8659 0.436862 18.2899 0.951294 19.4002 1.90847C20.5726 2.98316 21.3875 4.39138 21.7351 5.94342L21.7301 5.91843ZM31.03 23.9032L31.4 24.0882C31.15 24.5247 30.7842 24.8836 30.343 25.1254C29.9019 25.3671 29.4025 25.4823 28.9 25.4581C28.3385 25.4605 27.785 25.325 27.2881 25.0634C26.7911 24.8019 26.366 24.4224 26.0501 23.9582C25.2528 22.837 24.8501 21.4829 24.9051 20.1082C24.9051 17.5682 25.6051 14.4283 27.05 10.7033C27.3547 9.89636 27.7002 9.10536 28.085 8.33338C28.375 7.78839 28.78 7.13839 29.27 6.37341C28.6543 6.85098 28.0956 7.39792 27.605 8.00339C26.554 9.36188 25.6253 10.8109 24.8301 12.3333C24.6301 12.7033 24.4401 13.0233 24.2751 13.2983C24.2451 13.3433 24.0451 13.7433 23.6451 14.4833C23.1451 15.3733 22.6951 16.1233 22.2751 16.7383V15.9983C22.2751 15.9033 22.2751 15.7783 22.2751 15.6283L22.3101 12.5183L22.2751 10.8884C22.2761 9.6893 22.2144 8.491 22.0901 7.2984C22.0901 7.2734 22.0901 7.1734 22.0351 7.0034C21.9801 6.8334 21.9651 6.70341 21.9401 6.63341C21.6951 7.0984 21.4751 7.5284 21.3101 7.92839C21.1185 8.37555 20.9516 8.8329 20.8101 9.29837C20.6601 9.79836 20.4501 10.7533 20.1451 12.1133C20.0801 12.3833 20.0452 12.6483 19.9952 12.9083L19.9202 13.2983C19.8702 13.5683 19.7802 13.8733 19.7002 14.2233C19.3902 15.5283 19.1352 16.6333 18.8502 17.5183C18.5547 18.3835 18.1815 19.2202 17.7352 20.0182C16.0202 23.1932 13.5153 24.7932 10.1853 24.7932C8.38405 24.7955 6.62093 24.2743 5.11036 23.2932C3.52978 22.2841 2.2405 20.8794 1.37042 19.2182C0.454644 17.4984 -0.0163246 15.5767 0.000431992 13.6283C-0.0119685 11.8073 0.433335 10.0124 1.29543 8.40838C2.12561 6.81783 3.34951 5.46653 4.85037 4.48343C6.35926 3.51337 8.09418 2.95173 9.8853 2.85347C10.6045 1.93837 11.516 1.19246 12.5553 0.6685C13.6127 0.196979 14.7629 -0.0303168 15.9202 0.00350099C17.4802 -0.0419 19.0212 0.355057 20.3651 1.14849C21.5888 1.91826 22.5158 3.07962 22.9951 4.44344C23.3725 5.40882 23.6327 6.41601 23.7701 7.4434C23.9175 8.83327 23.9793 10.2309 23.9551 11.6283V12.9983C24.5984 11.765 25.2218 10.685 25.8251 9.75837C26.3453 8.94738 26.9217 8.17382 27.55 7.4434C29.2547 5.37256 31.5992 3.92685 34.215 3.33346V3.69345C33.3478 3.84884 32.5331 4.21835 31.845 4.76843C31.124 5.50062 30.5563 6.36922 30.175 7.3234C29.6958 8.43331 29.2818 9.57023 28.935 10.7284C28.53 12.0383 28.135 13.4783 27.77 15.0633C27.495 16.2683 27.2701 17.4283 27.1051 18.5632C26.9596 19.5063 26.8844 20.459 26.8801 21.4132C26.831 22.3197 27.0502 23.2205 27.51 24.0032C27.6955 24.2944 27.9533 24.5327 28.2582 24.6948C28.5631 24.8569 28.9048 24.9373 29.25 24.9282C29.6096 24.9183 29.961 24.8184 30.272 24.6376C30.5829 24.4568 30.8436 24.2008 31.03 23.8932" fill="#1D242C"/>
<path d="M61.1396 25.8581C61.163 26.2284 61.0759 26.5973 60.8896 26.9181C60.8032 27.0302 60.6922 27.1209 60.5652 27.1834C60.4382 27.2458 60.2986 27.2783 60.1571 27.2783C60.0156 27.2783 59.876 27.2458 59.749 27.1834C59.622 27.1209 59.511 27.0302 59.4246 26.9181C59.2284 26.601 59.1375 26.23 59.1646 25.8581C59.1393 25.4871 59.2283 25.1171 59.4196 24.7982C59.5054 24.6852 59.6162 24.5937 59.7433 24.5306C59.8703 24.4676 60.0103 24.4348 60.1521 24.4348C60.2939 24.4348 60.4339 24.4676 60.5609 24.5306C60.688 24.5937 60.7988 24.6852 60.8846 24.7982C61.0757 25.1191 61.1646 25.4905 61.1396 25.8632V25.8581ZM60.6646 25.8632C60.6742 25.6016 60.6352 25.3405 60.5496 25.0932C60.5232 25.0089 60.4696 24.9357 60.3973 24.8851C60.3249 24.8344 60.2378 24.8091 60.1496 24.8132C60.0624 24.8111 59.9768 24.8372 59.9056 24.8876C59.8345 24.9381 59.7815 25.0102 59.7546 25.0932C59.6081 25.5943 59.6081 26.127 59.7546 26.6281C59.7829 26.7111 59.8364 26.7831 59.9077 26.8341C59.979 26.8851 60.0645 26.9125 60.1521 26.9125C60.2397 26.9125 60.3252 26.8851 60.3965 26.8341C60.4677 26.7831 60.5213 26.7111 60.5496 26.6281C60.6356 26.3792 60.6746 26.1164 60.6646 25.8532" fill="#1D242C"/>
<path d="M62.9745 26.3082L63.3945 26.3631C63.3078 26.9731 63.0078 27.2781 62.4945 27.2781C62.3478 27.2871 62.2015 27.256 62.0711 27.1882C61.9408 27.1204 61.8313 27.0184 61.7545 26.8931C61.5902 26.5693 61.5046 26.2113 61.5046 25.8482C61.5046 25.485 61.5902 25.127 61.7545 24.8032C61.8384 24.6835 61.951 24.5868 62.0821 24.5221C62.2132 24.4575 62.3585 24.4269 62.5045 24.4332C63.0045 24.4332 63.2995 24.7482 63.3895 25.3732L62.9645 25.4332C62.9195 25.0182 62.7695 24.8132 62.5045 24.8132C62.1712 24.8132 62.0045 25.1732 62.0045 25.8932C62.0045 26.5681 62.1795 26.8931 62.5045 26.8931C62.566 26.8973 62.6275 26.8852 62.6828 26.858C62.7382 26.8308 62.7853 26.7894 62.8195 26.7381C62.8991 26.6037 62.9486 26.4536 62.9645 26.2981" fill="#1D242C"/>
<path d="M63.7445 24.4882H64.1995V25.6231H65.0095V24.4882H65.4645V27.2281H65.0095V26.0081H64.1995V27.2281H63.7445V24.4882Z" fill="#1D242C"/>
<path d="M67.8695 25.8581C67.8928 26.2284 67.8058 26.5973 67.6195 26.9181C67.5386 27.0354 67.4291 27.13 67.3013 27.193C67.1735 27.256 67.0317 27.2853 66.8895 27.2781C66.7465 27.2852 66.604 27.256 66.4755 27.193C66.3469 27.13 66.2365 27.0354 66.1545 26.9181C65.9868 26.5899 65.8994 26.2266 65.8994 25.8581C65.8994 25.4895 65.9868 25.1263 66.1545 24.7981C66.2345 24.6784 66.3444 24.5818 66.4734 24.5177C66.6023 24.4537 66.7458 24.4245 66.8895 24.4331C67.0317 24.4263 67.1733 24.4558 67.301 24.5188C67.4287 24.5818 67.5383 24.6761 67.6195 24.7931C67.8065 25.1155 67.8935 25.4861 67.8695 25.8581ZM67.3695 25.8581C67.3791 25.5965 67.3401 25.3354 67.2545 25.0881C67.229 25.0042 67.1764 24.9312 67.1049 24.8805C67.0334 24.8298 66.947 24.8043 66.8595 24.8081C66.7721 24.8052 66.6861 24.831 66.6148 24.8815C66.5435 24.9321 66.4907 25.0047 66.4645 25.0881C66.3145 25.5888 66.3145 26.1224 66.4645 26.6231C66.4909 26.7087 66.5451 26.7831 66.6183 26.8347C66.6916 26.8863 66.78 26.9121 66.8695 26.9081C66.9554 26.9102 67.0397 26.8846 67.11 26.8351C67.1802 26.7856 67.2326 26.7147 67.2595 26.6331C67.3455 26.3841 67.3845 26.1213 67.3745 25.8581" fill="#1D242C"/>
<path d="M68.3044 24.4832H69.1344C69.2943 24.479 69.454 24.4958 69.6094 24.5332C69.7255 24.572 69.8234 24.652 69.8844 24.7582C69.9633 24.8856 70.0033 25.0333 69.9994 25.1832C70.0106 25.3151 69.9759 25.4468 69.9012 25.5561C69.8265 25.6655 69.7164 25.7456 69.5894 25.7832C69.7409 25.8205 69.8742 25.9103 69.9657 26.0367C70.0572 26.163 70.1011 26.3176 70.0894 26.4732C70.0919 26.6678 70.0225 26.8565 69.8944 27.0031C69.7928 27.0906 69.6741 27.1558 69.5457 27.1945C69.4174 27.2333 69.2824 27.2447 69.1494 27.2281H68.3094L68.3044 24.4832ZM68.7494 25.6232H69.0344C69.177 25.6407 69.3208 25.6011 69.4344 25.5132C69.5019 25.4319 69.5374 25.3288 69.5344 25.2232C69.5393 25.1689 69.5319 25.1142 69.5129 25.0632C69.4938 25.0122 69.4636 24.966 69.4244 24.9282C69.3228 24.8603 69.2013 24.8287 69.0794 24.8382H68.7494V25.6232ZM68.7494 26.8631H69.1144C69.4494 26.8631 69.6144 26.7182 69.6144 26.4182C69.6141 26.3077 69.5772 26.2004 69.5094 26.1132C69.4533 26.0569 69.3845 26.0149 69.3089 25.9906C69.2332 25.9662 69.1529 25.9602 69.0744 25.9732H68.7494V26.8631Z" fill="#1D242C"/>
<path d="M71.0644 24.4832H71.5644L72.3044 27.2281H71.8444L71.6694 26.5431H70.8644L70.6944 27.2281H70.2644L71.0644 24.4832ZM71.5644 26.1831L71.2494 24.9282L70.9744 26.1931L71.5644 26.1831Z" fill="#1D242C"/>
<path d="M72.5845 24.4882H73.0395V25.6231H73.8445V24.4882H74.2995V27.2281H73.8445V26.0081H73.0395V27.2281H72.5845V24.4882Z" fill="#1D242C"/>
<path d="M76.7043 25.8581C76.7302 26.2286 76.643 26.5983 76.4543 26.9181C76.3738 27.0358 76.2643 27.1307 76.1365 27.1938C76.0086 27.2568 75.8667 27.2859 75.7243 27.2781C75.5813 27.2853 75.4389 27.256 75.3103 27.1931C75.1818 27.1301 75.0713 27.0355 74.9893 26.9181C74.8217 26.59 74.7343 26.2267 74.7343 25.8581C74.7343 25.4896 74.8217 25.1264 74.9893 24.7982C75.0752 24.6852 75.1859 24.5937 75.313 24.5306C75.4401 24.4676 75.58 24.4348 75.7218 24.4348C75.8637 24.4348 76.0036 24.4676 76.1307 24.5306C76.2577 24.5937 76.3685 24.6852 76.4543 24.7982C76.6437 25.1196 76.7309 25.491 76.7043 25.8632V25.8581ZM76.2293 25.8632C76.2418 25.6014 76.2027 25.3398 76.1143 25.0932C76.0889 25.0093 76.0363 24.9362 75.9647 24.8856C75.8932 24.8349 75.8069 24.8094 75.7193 24.8132C75.6319 24.8102 75.546 24.8361 75.4746 24.8866C75.4033 24.9372 75.3505 25.0097 75.3243 25.0932C75.1711 25.5933 75.1711 26.128 75.3243 26.6281C75.3537 26.7094 75.4074 26.7796 75.478 26.8292C75.5487 26.8788 75.633 26.9054 75.7193 26.9054C75.8057 26.9054 75.8899 26.8788 75.9606 26.8292C76.0313 26.7796 76.085 26.7094 76.1143 26.6281C76.2034 26.3799 76.2425 26.1165 76.2293 25.8532" fill="#1D242C"/>
<path d="M77.9093 24.4832H78.7393C78.9075 24.477 79.0757 24.4938 79.2393 24.5332C79.3554 24.572 79.4532 24.652 79.5143 24.7582C79.5932 24.8856 79.6331 25.0333 79.6293 25.1832C79.6405 25.3151 79.6058 25.4468 79.5311 25.5561C79.4564 25.6654 79.3462 25.7456 79.2193 25.7832C79.3707 25.8205 79.504 25.9103 79.5956 26.0366C79.6871 26.163 79.7309 26.3176 79.7193 26.4731C79.7218 26.6678 79.6524 26.8565 79.5243 27.0031C79.4225 27.0903 79.3037 27.1553 79.1755 27.1941C79.0472 27.2328 78.9123 27.2444 78.7793 27.2281H77.9393L77.9093 24.4832ZM78.3543 25.6232H78.6393C78.7819 25.6406 78.9257 25.6011 79.0393 25.5132C79.1053 25.4314 79.1391 25.3282 79.1343 25.2232C79.1403 25.1688 79.1334 25.1138 79.1143 25.0626C79.0952 25.0114 79.0644 24.9653 79.0243 24.9282C78.9256 24.858 78.8048 24.826 78.6843 24.8382H78.3543V25.6232ZM78.3543 26.8631H78.7193C79.0543 26.8631 79.2193 26.7182 79.2193 26.4182C79.2189 26.3077 79.182 26.2004 79.1143 26.1132C79.0581 26.0569 78.9894 26.0149 78.9137 25.9905C78.8381 25.9662 78.7577 25.9602 78.6793 25.9732H78.3543V26.8631Z" fill="#1D242C"/>
<path d="M81.7242 24.4531H82.0542V26.8931H82.4992V27.2281H81.1343V26.8931H81.6092V25.0131C81.4686 25.1722 81.2989 25.3028 81.1093 25.3981V24.9781C81.3444 24.8479 81.549 24.6689 81.7093 24.4531" fill="#1D242C"/>
<path d="M84.1392 25.7432C84.2871 25.8008 84.414 25.9019 84.5033 26.0331C84.5925 26.1643 84.6399 26.3195 84.6392 26.4782C84.6404 26.5855 84.6188 26.6918 84.5757 26.7901C84.5326 26.8884 84.469 26.9764 84.3892 27.0481C84.1993 27.2106 83.9537 27.2931 83.7042 27.2782C83.4652 27.2916 83.2292 27.2189 83.0392 27.0732C82.9653 27.0045 82.9069 26.9208 82.8681 26.8276C82.8293 26.7344 82.8109 26.634 82.8142 26.5332C82.8157 26.3793 82.8644 26.2296 82.9539 26.1044C83.0433 25.9791 83.1691 25.8845 83.3142 25.8332C83.1907 25.7759 83.0858 25.6851 83.0116 25.571C82.9373 25.4569 82.8966 25.3243 82.8942 25.1882C82.8921 25.0879 82.9106 24.9883 82.9484 24.8954C82.9862 24.8026 83.0427 24.7184 83.1142 24.6482C83.2864 24.4976 83.5108 24.4204 83.7392 24.4332C83.9562 24.4189 84.17 24.4907 84.3342 24.6332C84.4173 24.7104 84.4792 24.8075 84.5141 24.9154C84.549 25.0233 84.5558 25.1383 84.5338 25.2495C84.5117 25.3608 84.4616 25.4645 84.3882 25.5509C84.3147 25.6373 84.2204 25.7035 84.1142 25.7432H84.1392ZM83.6142 26.0032C83.3342 26.1232 83.1942 26.2882 83.1942 26.5032C83.1903 26.5653 83.2009 26.6274 83.2252 26.6847C83.2495 26.742 83.2868 26.7928 83.3342 26.8332C83.4348 26.9075 83.5566 26.9475 83.6817 26.9475C83.8068 26.9475 83.9286 26.9075 84.0292 26.8332C84.0748 26.798 84.1114 26.7524 84.1357 26.7002C84.1601 26.648 84.1716 26.5907 84.1692 26.5332C84.1698 26.4267 84.1285 26.3244 84.0542 26.2482C83.9282 26.1317 83.7779 26.0446 83.6142 25.9932V26.0032ZM83.7542 25.5932C84.0042 25.4698 84.1292 25.3148 84.1292 25.1282C84.1301 25.0256 84.0906 24.9268 84.0192 24.8532C83.9374 24.7821 83.8326 24.743 83.7242 24.743C83.6158 24.743 83.5111 24.7821 83.4292 24.8532C83.3911 24.8867 83.361 24.9284 83.3411 24.9751C83.3212 25.0219 83.312 25.0724 83.3142 25.1232C83.3142 25.3332 83.4592 25.4882 83.7542 25.6232" fill="#1D242C"/>
<path d="M85.9442 24.4331H86.4742V26.2231H86.8142V26.5731H86.4742V27.2281H86.0342V26.5731H84.9742V26.2381L85.9442 24.4331ZM86.0492 26.2381V24.8331L85.3142 26.2381H86.0492Z" fill="#1D242C"/>
<path d="M87.0542 24.4832H88.6391V24.8032C88.3937 25.1291 88.2091 25.4967 88.0941 25.8881C87.9585 26.3219 87.8894 26.7737 87.8891 27.2281H87.3891C87.3942 26.3762 87.6847 25.5506 88.2141 24.8832H86.9991L87.0542 24.4832Z" fill="#1D242C"/>
<path d="M89.8641 27.2281V24.4882H91.1941V24.8682H90.3191V27.2281H89.8641Z" fill="#1D242C"/>
<path d="M93.2891 25.8581C93.3125 26.2284 93.2255 26.5973 93.0391 26.9181C92.9582 27.0354 92.8487 27.1301 92.7209 27.1931C92.5932 27.2561 92.4514 27.2854 92.3091 27.2781C92.1661 27.2853 92.0237 27.256 91.8951 27.1931C91.7665 27.1301 91.6561 27.0355 91.5741 26.9181C91.3822 26.5994 91.2931 26.2293 91.3191 25.8581C91.2951 25.4878 91.3822 25.1188 91.5691 24.7982C91.6549 24.6852 91.7657 24.5937 91.8928 24.5306C92.0198 24.4676 92.1598 24.4348 92.3016 24.4348C92.4434 24.4348 92.5834 24.4676 92.7104 24.5306C92.8375 24.5937 92.9483 24.6852 93.0341 24.7982C93.2252 25.1191 93.3141 25.4905 93.2891 25.8632V25.8581ZM92.8141 25.8632C92.8237 25.6016 92.7847 25.3405 92.6991 25.0932C92.6697 25.0119 92.6161 24.9418 92.5454 24.8921C92.4747 24.8425 92.3905 24.8159 92.3041 24.8159C92.2177 24.8159 92.1335 24.8425 92.0628 24.8921C91.9921 24.9418 91.9384 25.0119 91.9091 25.0932C91.8214 25.34 91.7824 25.6015 91.7941 25.8632C91.7839 26.1227 91.8212 26.382 91.9041 26.6281C91.9306 26.7138 91.9847 26.7882 92.058 26.8398C92.1312 26.8913 92.2196 26.9171 92.3091 26.9131C92.395 26.9153 92.4793 26.8897 92.5496 26.8402C92.6198 26.7906 92.6723 26.7198 92.6991 26.6382C92.7851 26.3892 92.8241 26.1264 92.8141 25.8632Z" fill="#1D242C"/>
<path d="M93.6241 26.8481L94.2191 24.4832H94.8841L95.4291 26.8481H95.5841V27.8131H95.2641L95.2141 27.2281H93.8341L93.7841 27.8131H93.4741V26.8481H93.6241ZM94.0291 26.8481H94.9741L94.5891 24.9482H94.4741L94.0291 26.8481Z" fill="#1D242C"/>
<path d="M96.3791 26.4381L95.5791 24.4832H96.0441L96.5691 25.8781L97.0241 24.4832H97.4341L96.7341 26.5581C96.6837 26.7523 96.5916 26.9332 96.4641 27.0881C96.407 27.1383 96.3404 27.1765 96.2682 27.2006C96.1961 27.2246 96.1199 27.234 96.0441 27.2281H95.8591V26.8381H96.0441C96.093 26.8346 96.1407 26.821 96.1841 26.7981C96.2391 26.7981 96.2941 26.6881 96.3441 26.5381L96.3791 26.4381Z" fill="#1D242C"/>
</g>
</svg>
